<svg t="1543386453811" class="icon" style="" viewBox="0 0 1024 1024" version="1.1" xmlns="http://www.w3.org/2000/svg" p-id="2078" xmlns:xlink="http://www.w3.org/1999/xlink" width="200" height="200"><defs><style type="text/css"></style></defs><path d="M230.4 588.8h204.8v204.8c0 15.36 12.8 25.6 25.6 25.6s25.6-10.24 25.6-25.6v-204.8h204.8c12.8 0 25.6-10.24 25.6-25.6s-12.8-25.6-25.6-25.6h-204.8v-204.8c0-15.36-12.8-25.6-25.6-25.6s-25.6 10.24-25.6 25.6v204.8H230.4c-12.8 0-25.6 10.24-25.6 25.6s12.8 25.6 25.6 25.6z" p-id="2079"></path><path d="M921.6 76.8H256c-12.8 0-25.6 10.24-25.6 25.6s12.8 25.6 25.6 25.6h640v640c0 15.36 12.8 25.6 25.6 25.6s25.6-10.24 25.6-25.6V102.4c0-15.36-12.8-25.6-25.6-25.6z" p-id="2080"></path><path d="M819.2 179.2H102.4c-12.8 0-25.6 10.24-25.6 25.6v716.8c0 15.36 12.8 25.6 25.6 25.6h716.8c12.8 0 25.6-10.24 25.6-25.6V204.8c0-15.36-12.8-25.6-25.6-25.6z m-25.6 51.2v665.6H128V230.4h665.6z" p-id="2081"></path></svg>
