<svg t="1543303764442" class="icon" style="" viewBox="0 0 1025 1024" version="1.1" xmlns="http://www.w3.org/2000/svg" p-id="910" xmlns:xlink="http://www.w3.org/1999/xlink" width="200.1953125" height="200"><defs><style type="text/css"></style></defs><path d="M416.914286 650.971429c-131.657143 0-241.371429-109.714286-241.371429-241.371429s109.714286-241.371429 241.371429-241.371429S658.285714 277.942857 658.285714 409.6 548.571429 650.971429 416.914286 650.971429m592.457143 234.057142l-248.685715-248.685714c58.514286-87.771429 80.457143-190.171429 58.514286-307.2C789.942857 160.914286 650.971429 29.257143 482.742857 7.314286 204.8-43.885714-43.885714 204.8 7.314286 482.742857c29.257143 168.228571 160.914286 299.885714 321.828571 336.457143 117.028571 21.942857 219.428571 0 307.2-58.514286l248.685714 248.685715c14.628571 14.628571 43.885714 14.628571 58.514286 0l58.514286-58.514286c29.257143-14.628571 29.257143-43.885714 7.314286-65.828572" p-id="911"></path></svg>
