<svg t="1546828302092" class="icon" style="" viewBox="0 0 1024 1024" version="1.1" xmlns="http://www.w3.org/2000/svg" p-id="1149" xmlns:xlink="http://www.w3.org/1999/xlink" width="200" height="200"><defs><style type="text/css"></style></defs><path d="M510.050638 1023.415191C357.561774 1023.415191 73.88083 793.975252 73.88083 577.059966V163.064154c0-10.039216 8.333524-18.177803 18.665144-18.37274L117.25414 144.301542c0.974681 0 97.809252-1.949362 197.665335-41.911289C417.45593 61.599848 483.490577 14.522749 484.221588 14.035408l14.522749-10.429088a19.542357 19.542357 0 0 1 22.515134 0l14.815153 10.477822c0.682277 0.487341 66.814392 47.466971 169.155911 88.354845 99.95355 39.913192 196.885589 41.911289 197.86027 41.911289l24.513231 0.389872c10.33162 0.194936 18.61641 8.28479 18.616409 18.37274l0.194937 414.044546c0 216.866552-283.729678 446.257757-436.31601 446.257757z m369.063011-812.153055c-37.525224-2.826575-116.425662-12.573387-198.347611-45.322673A996.12412 996.12412 0 0 1 510.050638 78.364363c-25.341709 16.569579-86.892823 54.094803-170.617933 87.5751-81.824481 32.651818-160.481249 42.398629-198.493813 45.322673v365.846564c0 170.130592 247.179136 378.078812 369.111746 378.078812 47.272035 0 139.379402-38.694841 229.927279-123.687036 87.233962-81.873215 139.379402-177.002094 139.379403-254.391776l-0.243671-365.846564z m-404.00533 435.438797a32.846754 32.846754 0 0 1-23.684752 10.039215 33.285361 33.285361 0 0 1-23.782219-10.039215l-100.684561-102.244051a34.552446 34.552446 0 0 1 0-48.246716 33.187893 33.187893 0 0 1 47.466971 0l76.999809 78.120693 194.351419-197.567866a33.139159 33.139159 0 0 1 47.466971 0c13.158195 13.304397 13.158195 34.893585 0 48.246716L475.059585 646.700933z" fill="#212326" p-id="1150"></path></svg>
