<!-- <svg t="1543385042052" class="icon" style="" viewBox="0 0 1280 1024" version="1.1" xmlns="http://www.w3.org/2000/svg" p-id="1019" xmlns:xlink="http://www.w3.org/1999/xlink" width="250" height="200"><defs><style type="text/css"></style></defs><path d="M860.16 757.76l-46.08 46.08c-163.84 163.84-424.96 163.84-588.8 0-163.84-163.84-163.84-424.96 0-588.8C389.12 51.2 650.24 51.2 814.08 215.04l51.2 51.2c10.24 10.24 30.72 10.24 46.08 0s10.24-30.72 0-46.08l-51.2-51.2C670.72-20.48 368.64-20.48 179.2 168.96-10.24 358.4-10.24 665.6 179.2 849.92c189.44 189.44 491.52 189.44 680.96 0l46.08-46.08c10.24-10.24 10.24-30.72 0-46.08-10.24-10.24-30.72-10.24-46.08 0z" fill="#FF5757" p-id="1020"></path><path d="M1269.76 501.76c0-5.12-5.12-5.12-5.12-10.24l-153.6-153.6c-10.24-10.24-30.72-10.24-46.08 0-10.24 10.24-10.24 30.72 0 46.08l102.4 102.4h-460.8c-15.36 0-30.72 15.36-30.72 30.72 0 10.24 5.12 15.36 10.24 20.48 5.12 5.12 15.36 10.24 20.48 10.24h460.8l-102.4 102.4c-10.24 10.24-10.24 30.72 0 46.08 10.24 10.24 30.72 10.24 46.08 0l153.6-153.6c5.12-5.12 5.12-5.12 5.12-10.24 5.12-15.36 5.12-25.6 0-30.72z" fill="#FF5757" p-id="1021"></path></svg> -->

<svg t="1546828405539" class="icon" style="" viewBox="0 0 1024 1024" version="1.1" xmlns="http://www.w3.org/2000/svg" p-id="1258" xmlns:xlink="http://www.w3.org/1999/xlink" width="200" height="200"><defs><style type="text/css"></style></defs><path d="M309.333333 768a32 32 0 1 0-64 0v128A117.333333 117.333333 0 0 0 362.666667 1013.333333h469.333333A117.333333 117.333333 0 0 0 949.333333 896V128A117.333333 117.333333 0 0 0 832 10.666667H362.666667A117.333333 117.333333 0 0 0 245.333333 128v128a32 32 0 1 0 64 0V128c0-29.44 23.893333-53.333333 53.333334-53.333333h469.333333c29.44 0 53.333333 23.893333 53.333333 53.333333v768c0 29.44-23.893333 53.333333-53.333333 53.333333H362.666667c-29.44 0-53.333333-23.893333-53.333334-53.333333v-128z" fill="#FF5757" p-id="1259"></path><path d="M106.666667 544a32 32 0 1 1 0-64h533.333333a32 32 0 1 1 0 64H106.666667z" fill="#FF5757" p-id="1260"></path><path d="M616.106667 512L468.053333 363.946667a32 32 0 0 1 45.226667-45.226667l170.666667 170.666667a32 32 0 0 1 0 45.226666l-170.666667 170.666667a32 32 0 0 1-45.226667-45.226667L616.106667 512z" fill="#FF5757" p-id="1261"></path></svg>

