<svg t="1546828653628" class="icon" style="" viewBox="0 0 2047 1024" version="1.1" xmlns="http://www.w3.org/2000/svg" p-id="1039" xmlns:xlink="http://www.w3.org/1999/xlink" width="399.8046875" height="200"><defs><style type="text/css"></style></defs><path d="M187.223499 804.140274c-6.343091 0-15.960036 0-22.303127-3.376162a67.113997 67.113997 0 0 1-38.467779-84.915576L257.815966 346.312319c12.78849-32.738535 47.982416-52.279349 83.176341-39.286242 32.02238 13.095414 51.153961 49.107803 38.365471 85.017883l-131.158757 369.331602a65.681686 65.681686 0 0 1-60.770906 42.560096zM721.680088 1023.079229H712.063143a63.737836 63.737836 0 0 1-51.153961-75.196324l67.113997-385.700869a62.612449 62.612449 0 0 1 73.661705-52.381656 63.737836 63.737836 0 0 1 51.153961 75.196323l-67.216305 385.700869a68.546308 68.546308 0 0 1-64.04476 52.381657z m601.570586 0c-32.02238 0-57.599361-22.916975-63.942451-55.553202l-67.216306-385.70087a63.737836 63.737836 0 0 1 51.153962-75.298631 62.612449 62.612449 0 0 1 73.661704 52.381657l70.387851 388.974722a63.737836 63.737836 0 0 1-51.153961 75.196324h-12.890799z m534.354282-218.938955c-25.576981 0-51.153961-16.369268-60.770907-42.560096l-131.158757-369.331602c-12.890798-32.738535 6.343091-72.024778 38.365471-85.120192 32.02238-12.993106 70.387851 6.547707 83.176342 39.286243l131.158757 369.331601c12.78849 32.738535-6.343091 71.92247-38.365471 85.017884-6.445399 0-15.960036 3.273854-22.405435 3.273854zM1022.363073 653.747627C254.439804 653.747627 14.527725 114.175642 4.91078 91.258667-7.87771 58.62244 4.91078 19.438505 36.830852 6.445399c31.920072-13.095414 70.387851 0 83.176342 32.738535 9.616945 19.438505 220.780498 483.711859 902.355879 483.71186 681.370766 0 892.636627-464.171046 902.253572-483.814167a60.361674 60.361674 0 0 1 83.176341-32.738536c32.02238 13.095414 47.982416 52.381657 32.02238 85.017884-9.616945 22.916975-249.631332 562.284344-1017.554601 562.284344z" fill="#000000" p-id="1040"></path></svg>
