<svg t="1546828293012" class="icon" style="" viewBox="0 0 1462 1024" version="1.1" xmlns="http://www.w3.org/2000/svg" p-id="1039" xmlns:xlink="http://www.w3.org/1999/xlink" width="285.546875" height="200"><defs><style type="text/css"></style></defs><path d="M731.428571 0C396.507429 0 111.323429 205.970286 3.291429 494.445714a50.102857 50.102857 0 0 0 0 35.108572C111.323429 818.029714 396.507429 1024 731.428571 1024s620.105143-205.970286 728.137143-494.445714a50.102857 50.102857 0 0 0 0-35.108572C1351.533714 205.897143 1066.349714 0 731.428571 0z m0 921.6c-282.404571 0-523.995429-169.691429-622.006857-409.6C207.433143 272.091429 449.097143 102.4 731.428571 102.4c282.404571 0 523.995429 169.691429 622.006858 409.6-98.011429 239.908571-339.602286 409.6-622.006858 409.6z" fill="#000000" p-id="1040"></path><path d="M731.428571 256C585.508571 256 467.236571 370.614857 467.236571 512S585.508571 768 731.428571 768s264.192-114.614857 264.192-256S877.348571 256 731.428571 256z m0 409.6c-87.552 0-158.500571-68.754286-158.500571-153.6 0-84.845714 70.948571-153.6 158.500571-153.6 87.552 0 158.500571 68.754286 158.500572 153.6 0 84.845714-70.948571 153.6-158.500572 153.6z" fill="#000000" p-id="1041"></path></svg>
