<!-- <svg width="128" height="128" xmlns="http://www.w3.org/2000/svg"><path d="M108.8 44.322H89.6v-5.36c0-9.04-3.308-24.163-25.6-24.163-23.145 0-25.6 16.881-25.6 24.162v5.361H19.2v-5.36C19.2 15.281 36.798 0 64 0c27.202 0 44.8 15.281 44.8 38.961v5.361zm-32 39.356c0-5.44-5.763-9.832-12.8-9.832-7.037 0-12.8 4.392-12.8 9.832 0 3.682 2.567 6.808 6.407 8.477v11.205c0 2.718 2.875 4.962 6.4 4.962 3.524 0 6.4-2.244 6.4-4.962V92.155c3.833-1.669 6.393-4.795 6.393-8.477zM128 64v49.201c0 8.158-8.645 14.799-19.2 14.799H19.2C8.651 128 0 121.359 0 113.201V64c0-8.153 8.645-14.799 19.2-14.799h89.6c10.555 0 19.2 6.646 19.2 14.799z"/></svg> -->
<svg t="1543285368843" class="icon" style="" viewBox="0 0 1024 1024" version="1.1" xmlns="http://www.w3.org/2000/svg" p-id="1006" xmlns:xlink="http://www.w3.org/1999/xlink" width="200" height="200"><defs><style type="text/css"></style></defs><path d="M512 632.208696m-93.495652 0a93.495652 93.495652 0 1 0 186.991304 0 93.495652 93.495652 0 1 0-186.991304 0Z" fill="#212135" p-id="1007"></path><path d="M725.704348 280.486957V213.704348c0-57.878261-22.26087-111.304348-62.330435-151.373913C623.304348 22.26087 569.878261 0 512 0 391.791304 0 298.295652 97.947826 298.295652 213.704348v66.782609C191.443478 293.843478 111.304348 387.33913 111.304348 494.191304v280.486957c0 120.208696 97.947826 213.704348 213.704348 213.704348h373.982608c120.208696 0 213.704348-97.947826 213.704348-213.704348v-280.486957c0-106.852174-80.13913-200.347826-186.991304-213.704347zM351.721739 213.704348c0-89.043478 71.234783-160.278261 160.278261-160.278261 40.069565 0 80.13913 17.808696 111.304348 44.521739 31.165217 31.165217 44.521739 71.234783 44.521739 111.304348v66.782609H351.721739V213.704348z m503.095652 560.973913c0 89.043478-71.234783 160.278261-160.278261 160.278261H325.008696c-89.043478 0-160.278261-71.234783-160.278261-160.278261v-280.486957c0-89.043478 71.234783-160.278261 160.278261-160.278261h373.982608c89.043478 0 160.278261 71.234783 160.278261 160.278261v280.486957z" p-id="1008"></path></svg>
