<svg t="1543301590357" class="icon" style="" viewBox="0 0 1024 1024" version="1.1" xmlns="http://www.w3.org/2000/svg" p-id="1445" xmlns:xlink="http://www.w3.org/1999/xlink" width="200" height="200"><defs><style type="text/css"></style></defs><path d="M1024 599.771429V424.228571h-138.971429c-7.314286-43.885714-29.257143-80.457143-51.2-117.028571l124.342858-124.342857L833.828571 58.514286 716.8 190.171429c-36.571429-29.257143-73.142857-43.885714-117.028571-51.2V0H424.228571v138.971429c-43.885714 7.314286-80.457143 21.942857-117.028571 51.2L182.857143 58.514286 58.514286 182.857143l124.342857 124.342857c-21.942857 36.571429-36.571429 73.142857-43.885714 117.028571H0v168.228572h138.971429c7.314286 51.2 21.942857 87.771429 51.2 124.342857L65.828571 841.142857l117.028572 124.342857 124.342857-124.342857c36.571429 21.942857 73.142857 36.571429 117.028571 51.2V1024h168.228572v-138.971429c43.885714-7.314286 80.457143-29.257143 117.028571-51.2l124.342857 124.342858 124.342858-124.342858-124.342858-124.342857c21.942857-36.571429 36.571429-73.142857 51.2-117.028571H1024zM512 680.228571c-95.085714 0-168.228571-73.142857-168.228571-168.228571s73.142857-168.228571 168.228571-168.228571 168.228571 73.142857 168.228571 168.228571-73.142857 168.228571-168.228571 168.228571z" p-id="1446"></path></svg>
