<!-- <svg t="1543285124882" class="icon" style="" viewBox="0 0 1024 1024" version="1.1" xmlns="http://www.w3.org/2000/svg" p-id="897" xmlns:xlink="http://www.w3.org/1999/xlink" width="200" height="200"><defs><style type="text/css"></style></defs><path d="M967.68 855.04c-40.96-168.96-168.96-296.96-327.68-337.92 71.68-46.08 117.76-122.88 117.76-215.04C762.88 163.84 650.24 51.2 512 51.2 373.76 51.2 261.12 163.84 261.12 302.08c0 92.16 46.08 168.96 117.76 215.04-158.72 46.08-286.72 174.08-327.68 337.92-10.24 30.72 0 66.56 20.48 97.28 20.48 30.72 56.32 46.08 92.16 46.08h686.08c35.84 0 71.68-15.36 92.16-46.08 25.6-30.72 35.84-66.56 25.6-97.28zM317.44 302.08c0-107.52 87.04-194.56 194.56-194.56 107.52 0 194.56 87.04 194.56 194.56 0 107.52-87.04 194.56-194.56 194.56-107.52 0-194.56-87.04-194.56-194.56z m588.8 614.4c-10.24 15.36-30.72 25.6-51.2 25.6H168.96c-20.48 0-35.84-10.24-51.2-25.6-10.24-15.36-15.36-30.72-10.24-46.08 46.08-184.32 209.92-317.44 404.48-317.44 194.56 0 358.4 128 404.48 317.44 5.12 15.36 0 30.72-10.24 46.08z" fill="#212135" p-id="898"></path></svg> -->

<svg t="1543285124882" class="icon" style="" viewBox="0 0 1024 1024" version="1.1" xmlns="http://www.w3.org/2000/svg" p-id="897" xmlns:xlink="http://www.w3.org/1999/xlink" width="200" height="200"><defs><style type="text/css"></style></defs><path d="M967.68 855.04c-40.96-168.96-168.96-296.96-327.68-337.92 71.68-46.08 117.76-122.88 117.76-215.04C762.88 163.84 650.24 51.2 512 51.2 373.76 51.2 261.12 163.84 261.12 302.08c0 92.16 46.08 168.96 117.76 215.04-158.72 46.08-286.72 174.08-327.68 337.92-10.24 30.72 0 66.56 20.48 97.28 20.48 30.72 56.32 46.08 92.16 46.08h686.08c35.84 0 71.68-15.36 92.16-46.08 25.6-30.72 35.84-66.56 25.6-97.28zM317.44 302.08c0-107.52 87.04-194.56 194.56-194.56 107.52 0 194.56 87.04 194.56 194.56 0 107.52-87.04 194.56-194.56 194.56-107.52 0-194.56-87.04-194.56-194.56z m588.8 614.4c-10.24 15.36-30.72 25.6-51.2 25.6H168.96c-20.48 0-35.84-10.24-51.2-25.6-10.24-15.36-15.36-30.72-10.24-46.08 46.08-184.32 209.92-317.44 404.48-317.44 194.56 0 358.4 128 404.48 317.44 5.12 15.36 0 30.72-10.24 46.08z" p-id="898"></path></svg>
